<svg width="43" height="43" viewBox="0 0 43 43" fill="none" xmlns="http://www.w3.org/2000/svg">
<path fill-rule="evenodd" clip-rule="evenodd" d="M29.7539 0.0495824C26.4628 0.40859 23.1596 1.68963 20.1764 3.76404C18.8072 4.71609 17.0598 6.23521 16.127 7.28465L15.6168 7.85852L15.9772 7.94834C19.1672 8.74397 22.5112 10.4121 25.318 12.6081L26.1392 13.2507L26.5441 12.3877C27.9606 9.36856 30.2227 6.85542 33.0344 5.17702C34.3014 4.42066 35.045 4.09857 37.3168 3.32211L39.2019 2.67785L38.7565 2.32582C37.4542 1.29665 35.5994 0.513626 33.6653 0.176484C32.7207 0.0119072 30.7004 -0.053688 29.7539 0.0495824ZM38.544 5.55478C34.9818 6.78856 33.3759 7.69327 31.6044 9.46434C30.2321 10.8364 29.1659 12.4757 28.4129 14.3714L28.1507 15.0318L28.8523 15.8011C31.8609 19.1001 33.9622 22.8638 34.8807 26.599C34.9859 27.0268 35.1037 27.3769 35.1426 27.3769C35.2697 27.3769 37.2738 25.3346 37.9483 24.5176C40.5957 21.3112 42.2056 17.909 42.8434 14.1737C43.0528 12.9476 43.0521 10.4997 42.842 9.3382C42.6789 8.43618 42.3956 7.45948 42.0614 6.64711C41.7344 5.85257 41.0822 4.75478 40.9413 4.76184C40.8719 4.76529 39.7931 5.12211 38.544 5.55478ZM10.197 10.0217C9.50463 10.097 8.40743 10.3229 7.71558 10.5325C6.98427 10.7542 5.30961 11.5254 4.94968 11.8063L4.74932 11.9627L5.31903 13.6779C6.31025 16.6625 6.79939 17.8178 7.60446 19.0761C9.03165 21.3065 10.9292 23.0226 13.2432 24.1755C14.3243 24.714 15.2629 25.0369 16.7922 25.396C18.4935 25.7956 19.6632 26.1978 20.9638 26.8307C23.9807 28.2984 26.4493 30.5926 28.1123 33.4739C28.7876 34.6439 29.1642 35.5346 29.8045 37.4755C30.1085 38.3972 30.3913 39.1303 30.4329 39.1046C30.4744 39.0789 30.6766 38.8223 30.8821 38.5344C32.9943 35.5751 33.5613 31.6477 32.4948 27.3643C30.6998 20.1551 24.4246 13.417 17.2207 10.9636C16.3326 10.6612 15.1425 10.3577 14.1504 10.1806C13.4137 10.0491 10.8809 9.94739 10.197 10.0217ZM2.23914 14.3428C-0.556366 18.166 -0.745458 23.7781 1.73469 29.3111C4.01406 34.3961 8.59551 38.9795 13.6457 41.2272C17.7375 43.0483 21.7574 43.4763 25.2757 42.4652C25.9429 42.2734 27.8202 41.4153 28.1738 41.1405C28.3074 41.0366 28.2622 40.8593 27.5622 38.7388C26.7774 36.3615 26.3038 35.2816 25.5115 34.0625C23.8663 31.5311 21.2643 29.4912 18.3442 28.4436C18.0138 28.325 17.0467 28.0575 16.1953 27.8492C14.3634 27.4008 13.326 27.0386 12.0775 26.4111C8.78073 24.7543 6.11376 22.027 4.51035 18.6729C4.10163 17.818 2.75275 14.1694 2.75275 13.9188C2.75275 13.7305 2.58637 13.8679 2.23914 14.3428Z" fill="black"/>
</svg>
