<svg width="243" height="99" viewBox="0 0 243 99" fill="none" xmlns="http://www.w3.org/2000/svg">
<path d="M132.278 61.1652C129.021 61.1652 125.867 60.6705 122.816 59.681C119.806 58.6503 117.435 57.331 115.704 55.7231L117.992 50.8993C119.641 52.3835 121.744 53.5998 124.3 54.548C126.897 55.4551 129.557 55.9086 132.278 55.9086C135.865 55.9086 138.545 55.3108 140.317 54.1151C142.09 52.8783 142.977 51.2498 142.977 49.2295C142.977 47.7453 142.482 46.5497 141.492 45.6427C140.544 44.6944 139.348 43.9729 137.905 43.4781C136.504 42.9834 134.504 42.4268 131.907 41.8084C128.65 41.025 126.011 40.2417 123.991 39.4584C122.012 38.675 120.301 37.4794 118.858 35.8715C117.456 34.2223 116.755 32.0166 116.755 29.2543C116.755 26.9455 117.353 24.8634 118.549 23.0081C119.785 21.1528 121.641 19.6686 124.114 18.5554C126.588 17.4422 129.66 16.8857 133.329 16.8857C135.885 16.8857 138.4 17.2155 140.874 17.8751C143.348 18.5348 145.471 19.4831 147.244 20.7199L145.203 25.6674C143.389 24.513 141.451 23.6472 139.39 23.07C137.328 22.4515 135.308 22.1423 133.329 22.1423C129.825 22.1423 127.186 22.7814 125.413 24.0594C123.682 25.3375 122.816 26.9867 122.816 29.0069C122.816 30.4911 123.311 31.7074 124.3 32.6556C125.29 33.5627 126.506 34.2842 127.949 34.8201C129.433 35.3149 131.433 35.8508 133.948 36.428C137.205 37.2114 139.823 37.9947 141.802 38.7781C143.781 39.5614 145.471 40.7571 146.873 42.365C148.316 43.9729 149.037 46.1374 149.037 48.8585C149.037 51.1261 148.419 53.2081 147.182 55.1046C145.945 56.9599 144.069 58.4442 141.554 59.5573C139.039 60.6293 135.947 61.1652 132.278 61.1652ZM172.172 41.4373L164.256 49.4769V60.6705H158.072V17.3804H164.256V41.561L187.757 17.3804H194.807L176.316 36.8609L195.982 60.6705H188.746L172.172 41.4373ZM208.706 22.7607V37.8504H230.413V43.1689H208.706V60.6705H202.522V17.3804H233.072V22.7607H208.706Z" fill="#F4C329"/>
<path d="M118.756 87.7664C117.819 87.7664 116.981 87.5639 116.24 87.159C115.511 86.754 114.938 86.1987 114.522 85.4929C114.105 84.7756 113.897 83.9657 113.897 83.0633C113.897 82.1608 114.105 81.3567 114.522 80.651C114.938 79.9337 115.511 79.3783 116.24 78.9849C116.981 78.58 117.819 78.3775 118.756 78.3775C119.59 78.3775 120.33 78.5453 120.978 78.8808C121.637 79.2163 122.146 79.7023 122.505 80.3386L121.238 81.1543C120.949 80.7146 120.59 80.3849 120.162 80.1651C119.734 79.9452 119.26 79.8353 118.739 79.8353C118.137 79.8353 117.594 79.9684 117.108 80.2345C116.633 80.5006 116.257 80.8824 115.98 81.3799C115.714 81.8658 115.581 82.4269 115.581 83.0633C115.581 83.7112 115.714 84.2839 115.98 84.7814C116.257 85.2673 116.633 85.6433 117.108 85.9095C117.594 86.1756 118.137 86.3086 118.739 86.3086C119.26 86.3086 119.734 86.1987 120.162 85.9789C120.59 85.759 120.949 85.4293 121.238 84.9897L122.505 85.788C122.146 86.4243 121.637 86.916 120.978 87.2631C120.33 87.5986 119.59 87.7664 118.756 87.7664ZM128.466 87.7664C127.552 87.7664 126.731 87.5639 126.002 87.159C125.273 86.754 124.7 86.1987 124.284 85.4929C123.879 84.7756 123.676 83.9657 123.676 83.0633C123.676 82.1608 123.879 81.3567 124.284 80.651C124.7 79.9337 125.273 79.3783 126.002 78.9849C126.731 78.58 127.552 78.3775 128.466 78.3775C129.38 78.3775 130.196 78.58 130.913 78.9849C131.642 79.3783 132.209 79.9337 132.614 80.651C133.03 81.3567 133.239 82.1608 133.239 83.0633C133.239 83.9657 133.03 84.7756 132.614 85.4929C132.209 86.1987 131.642 86.754 130.913 87.159C130.196 87.5639 129.38 87.7664 128.466 87.7664ZM128.466 86.3086C129.056 86.3086 129.583 86.1756 130.045 85.9095C130.52 85.6318 130.89 85.25 131.156 84.764C131.422 84.2665 131.555 83.6996 131.555 83.0633C131.555 82.4269 131.422 81.8658 131.156 81.3799C130.89 80.8824 130.52 80.5006 130.045 80.2345C129.583 79.9684 129.056 79.8353 128.466 79.8353C127.876 79.8353 127.344 79.9684 126.869 80.2345C126.407 80.5006 126.036 80.8824 125.759 81.3799C125.493 81.8658 125.36 82.4269 125.36 83.0633C125.36 83.6996 125.493 84.2665 125.759 84.764C126.036 85.25 126.407 85.6318 126.869 85.9095C127.344 86.1756 127.876 86.3086 128.466 86.3086ZM138.909 76.052C137.914 76.052 137.417 76.59 137.417 77.666V78.4643H140.09V79.8353H137.452V87.6623H135.786V79.8353H134.224V78.4643H135.786V77.6486C135.786 76.7346 136.052 76.0115 136.584 75.4793C137.116 74.9471 137.862 74.681 138.823 74.681C139.193 74.681 139.54 74.7273 139.864 74.8198C140.188 74.9124 140.466 75.0454 140.697 75.219L140.194 76.4859C139.812 76.1966 139.384 76.052 138.909 76.052ZM145.028 76.052C144.033 76.052 143.535 76.59 143.535 77.666V78.4643H146.208V79.8353H143.57V87.6623H141.904V79.8353H140.342V78.4643H141.904V77.6486C141.904 76.7346 142.17 76.0115 142.702 75.4793C143.234 74.9471 143.981 74.681 144.941 74.681C145.311 74.681 145.658 74.7273 145.982 74.8198C146.306 74.9124 146.584 75.0454 146.815 75.219L146.312 76.4859C145.93 76.1966 145.502 76.052 145.028 76.052ZM155.956 83.1153C155.956 83.2426 155.945 83.4104 155.922 83.6186H148.459C148.563 84.4285 148.916 85.0822 149.518 85.5797C150.131 86.0656 150.889 86.3086 151.791 86.3086C152.89 86.3086 153.775 85.9384 154.447 85.1979L155.366 86.2739C154.95 86.7598 154.429 87.1301 153.804 87.3846C153.191 87.6391 152.503 87.7664 151.739 87.7664C150.767 87.7664 149.905 87.5697 149.153 87.1763C148.401 86.7714 147.817 86.2103 147.401 85.4929C146.996 84.7756 146.793 83.9657 146.793 83.0633C146.793 82.1724 146.99 81.3683 147.383 80.651C147.788 79.9337 148.338 79.3783 149.032 78.9849C149.738 78.58 150.53 78.3775 151.409 78.3775C152.289 78.3775 153.07 78.58 153.752 78.9849C154.447 79.3783 154.985 79.9337 155.366 80.651C155.76 81.3683 155.956 82.1898 155.956 83.1153ZM151.409 79.7832C150.611 79.7832 149.94 80.0262 149.396 80.5121C148.864 80.9981 148.552 81.6344 148.459 82.4212H154.36C154.267 81.646 153.949 81.0154 153.405 80.5295C152.873 80.032 152.208 79.7832 151.409 79.7832ZM166.583 83.1153C166.583 83.2426 166.571 83.4104 166.548 83.6186H159.086C159.19 84.4285 159.543 85.0822 160.144 85.5797C160.757 86.0656 161.515 86.3086 162.418 86.3086C163.517 86.3086 164.402 85.9384 165.073 85.1979L165.993 86.2739C165.576 86.7598 165.056 87.1301 164.431 87.3846C163.818 87.6391 163.129 87.7664 162.366 87.7664C161.394 87.7664 160.532 87.5697 159.78 87.1763C159.028 86.7714 158.443 86.2103 158.027 85.4929C157.622 84.7756 157.419 83.9657 157.419 83.0633C157.419 82.1724 157.616 81.3683 158.01 80.651C158.414 79.9337 158.964 79.3783 159.658 78.9849C160.364 78.58 161.157 78.3775 162.036 78.3775C162.915 78.3775 163.696 78.58 164.379 78.9849C165.073 79.3783 165.611 79.9337 165.993 80.651C166.386 81.3683 166.583 82.1898 166.583 83.1153ZM162.036 79.7832C161.237 79.7832 160.566 80.0262 160.023 80.5121C159.49 80.9981 159.178 81.6344 159.086 82.4212H164.986C164.894 81.646 164.575 81.0154 164.032 80.5295C163.499 80.032 162.834 79.7832 162.036 79.7832ZM175.154 80.0089C175.443 79.4767 175.871 79.0717 176.438 78.794C177.005 78.5164 177.693 78.3775 178.503 78.3775V79.9915C178.41 79.9799 178.283 79.9742 178.121 79.9742C177.219 79.9742 176.507 80.246 175.987 80.7898C175.477 81.322 175.223 82.0856 175.223 83.0806V87.6623H173.557V78.4643H175.154V80.0089ZM184.411 87.7664C183.497 87.7664 182.676 87.5639 181.947 87.159C181.218 86.754 180.645 86.1987 180.229 85.4929C179.824 84.7756 179.621 83.9657 179.621 83.0633C179.621 82.1608 179.824 81.3567 180.229 80.651C180.645 79.9337 181.218 79.3783 181.947 78.9849C182.676 78.58 183.497 78.3775 184.411 78.3775C185.325 78.3775 186.141 78.58 186.858 78.9849C187.587 79.3783 188.154 79.9337 188.559 80.651C188.975 81.3567 189.184 82.1608 189.184 83.0633C189.184 83.9657 188.975 84.7756 188.559 85.4929C188.154 86.1987 187.587 86.754 186.858 87.159C186.141 87.5639 185.325 87.7664 184.411 87.7664ZM184.411 86.3086C185.001 86.3086 185.528 86.1756 185.99 85.9095C186.465 85.6318 186.835 85.25 187.101 84.764C187.367 84.2665 187.5 83.6996 187.5 83.0633C187.5 82.4269 187.367 81.8658 187.101 81.3799C186.835 80.8824 186.465 80.5006 185.99 80.2345C185.528 79.9684 185.001 79.8353 184.411 79.8353C183.821 79.8353 183.289 79.9684 182.815 80.2345C182.352 80.5006 181.981 80.8824 181.704 81.3799C181.438 81.8658 181.305 82.4269 181.305 83.0633C181.305 83.6996 181.438 84.2665 181.704 84.764C181.981 85.25 182.352 85.6318 182.815 85.9095C183.289 86.1756 183.821 86.3086 184.411 86.3086ZM194.753 78.3775C196.025 78.3775 196.997 78.6899 197.668 79.3147C198.351 79.9394 198.692 80.8708 198.692 82.1088V87.6623H197.113V86.4474C196.835 86.8755 196.436 87.2053 195.915 87.4367C195.406 87.6565 194.799 87.7664 194.093 87.7664C193.063 87.7664 192.236 87.5177 191.611 87.0202C190.998 86.5227 190.692 85.869 190.692 85.0591C190.692 84.2492 190.987 83.6013 191.577 83.1153C192.167 82.6178 193.104 82.3691 194.388 82.3691H197.026V82.0394C197.026 81.322 196.818 80.7725 196.401 80.3907C195.985 80.0089 195.371 79.818 194.562 79.818C194.018 79.818 193.486 79.9105 192.965 80.0956C192.444 80.2692 192.005 80.5064 191.646 80.8072L190.952 79.5576C191.426 79.1758 191.993 78.8866 192.653 78.6899C193.312 78.4816 194.012 78.3775 194.753 78.3775ZM194.371 86.4822C195.007 86.4822 195.557 86.3433 196.019 86.0656C196.482 85.7764 196.818 85.3715 197.026 84.8508V83.5666H194.457C193.046 83.5666 192.34 84.0409 192.34 84.9897C192.34 85.4524 192.52 85.8169 192.878 86.083C193.237 86.3491 193.734 86.4822 194.371 86.4822ZM204.413 87.7664C203.661 87.7664 202.938 87.6681 202.244 87.4714C201.55 87.2631 201.006 87.0028 200.612 86.6904L201.307 85.3715C201.712 85.6607 202.203 85.8921 202.782 86.0656C203.36 86.2392 203.945 86.326 204.535 86.326C205.992 86.326 206.721 85.9095 206.721 85.0764C206.721 84.7988 206.623 84.5789 206.426 84.417C206.23 84.255 205.981 84.1393 205.68 84.0699C205.391 83.9889 204.974 83.9021 204.43 83.8095C203.69 83.6938 203.083 83.5608 202.608 83.4104C202.145 83.26 201.746 83.0054 201.411 82.6468C201.075 82.2881 200.907 81.7848 200.907 81.1369C200.907 80.3039 201.255 79.6386 201.949 79.1411C202.643 78.6321 203.574 78.3775 204.743 78.3775C205.356 78.3775 205.969 78.4527 206.582 78.6031C207.196 78.7535 207.699 78.956 208.092 79.2105L207.381 80.5295C206.629 80.0436 205.744 79.8006 204.725 79.8006C204.02 79.8006 203.482 79.9163 203.112 80.1477C202.741 80.3791 202.556 80.6857 202.556 81.0675C202.556 81.3683 202.66 81.6055 202.869 81.779C203.077 81.9526 203.331 82.0799 203.632 82.1608C203.945 82.2418 204.378 82.3344 204.934 82.4385C205.674 82.5658 206.27 82.7046 206.721 82.855C207.184 82.9939 207.577 83.2368 207.901 83.5839C208.225 83.931 208.387 84.417 208.387 85.0417C208.387 85.8747 208.029 86.54 207.311 87.0375C206.606 87.5234 205.64 87.7664 204.413 87.7664ZM215.641 87.1243C215.398 87.3325 215.097 87.4945 214.739 87.6102C214.38 87.7143 214.01 87.7664 213.628 87.7664C212.702 87.7664 211.985 87.5177 211.476 87.0202C210.967 86.5227 210.712 85.8111 210.712 84.8855V79.8353H209.151V78.4643H210.712V76.4512H212.378V78.4643H215.016V79.8353H212.378V84.8161C212.378 85.3136 212.5 85.6954 212.743 85.9615C212.997 86.2276 213.356 86.3607 213.819 86.3607C214.328 86.3607 214.762 86.2161 215.121 85.9268L215.641 87.1243ZM225.663 83.1153C225.663 83.2426 225.652 83.4104 225.629 83.6186H218.166C218.27 84.4285 218.623 85.0822 219.225 85.5797C219.838 86.0656 220.596 86.3086 221.498 86.3086C222.597 86.3086 223.482 85.9384 224.153 85.1979L225.073 86.2739C224.657 86.7598 224.136 87.1301 223.511 87.3846C222.898 87.6391 222.21 87.7664 221.446 87.7664C220.474 87.7664 219.612 87.5697 218.86 87.1763C218.108 86.7714 217.524 86.2103 217.107 85.4929C216.702 84.7756 216.5 83.9657 216.5 83.0633C216.5 82.1724 216.697 81.3683 217.09 80.651C217.495 79.9337 218.045 79.3783 218.739 78.9849C219.444 78.58 220.237 78.3775 221.116 78.3775C221.996 78.3775 222.777 78.58 223.459 78.9849C224.153 79.3783 224.691 79.9337 225.073 80.651C225.467 81.3683 225.663 82.1898 225.663 83.1153ZM221.116 79.7832C220.318 79.7832 219.647 80.0262 219.103 80.5121C218.571 80.9981 218.259 81.6344 218.166 82.4212H224.067C223.974 81.646 223.656 81.0154 223.112 80.5295C222.58 80.032 221.915 79.7832 221.116 79.7832ZM229.573 80.0089C229.863 79.4767 230.291 79.0717 230.858 78.794C231.424 78.5164 232.113 78.3775 232.923 78.3775V79.9915C232.83 79.9799 232.703 79.9742 232.541 79.9742C231.639 79.9742 230.927 80.246 230.406 80.7898C229.897 81.322 229.643 82.0856 229.643 83.0806V87.6623H227.977V78.4643H229.573V80.0089ZM237.682 87.7664C236.93 87.7664 236.207 87.6681 235.513 87.4714C234.818 87.2631 234.275 87.0028 233.881 86.6904L234.575 85.3715C234.98 85.6607 235.472 85.8921 236.051 86.0656C236.629 86.2392 237.213 86.326 237.803 86.326C239.261 86.326 239.99 85.9095 239.99 85.0764C239.99 84.7988 239.892 84.5789 239.695 84.417C239.498 84.255 239.25 84.1393 238.949 84.0699C238.66 83.9889 238.243 83.9021 237.699 83.8095C236.959 83.6938 236.351 83.5608 235.877 83.4104C235.414 83.26 235.015 83.0054 234.68 82.6468C234.344 82.2881 234.176 81.7848 234.176 81.1369C234.176 80.3039 234.523 79.6386 235.218 79.1411C235.912 78.6321 236.843 78.3775 238.012 78.3775C238.625 78.3775 239.238 78.4527 239.851 78.6031C240.464 78.7535 240.968 78.956 241.361 79.2105L240.65 80.5295C239.898 80.0436 239.012 79.8006 237.994 79.8006C237.289 79.8006 236.751 79.9163 236.38 80.1477C236.01 80.3791 235.825 80.6857 235.825 81.0675C235.825 81.3683 235.929 81.6055 236.137 81.779C236.346 81.9526 236.6 82.0799 236.901 82.1608C237.213 82.2418 237.647 82.3344 238.203 82.4385C238.943 82.5658 239.539 82.7046 239.99 82.855C240.453 82.9939 240.846 83.2368 241.17 83.5839C241.494 83.931 241.656 84.417 241.656 85.0417C241.656 85.8747 241.297 86.54 240.58 87.0375C239.874 87.5234 238.908 87.7664 237.682 87.7664Z" fill="#F4C329"/>
<path fill-rule="evenodd" clip-rule="evenodd" d="M43.9112 0.274068C30.1832 2.10458 17.0413 9.80168 9.55822 20.3952C-4.75267 40.6532 -2.84601 66.525 14.2868 84.548C20.1156 90.6794 27.9367 95.2288 36.9605 97.7362C41.2029 98.9151 42.2317 99.0164 49.7541 98.9982C57.0488 98.9805 58.4147 98.8478 62.3747 97.7735C67.8096 96.2994 74.1166 93.4338 77.9613 90.6925C81.9489 87.8489 88.1588 81.5334 90.6053 77.8332C96.4903 68.9319 99.3019 59.8541 99.3019 49.7534C99.3019 36.2317 94.1825 23.9142 84.6381 14.4697C78.0996 8.00013 70.5726 3.80757 61.1753 1.40115C56.2411 0.138146 48.6486 -0.357899 43.9112 0.274068ZM61.1379 4.39937C65.2308 5.47787 72.3385 8.69049 75.7798 11.0166C84.7773 17.0985 91.7898 26.8802 94.7257 37.4438C95.6031 40.6013 95.7484 42.3482 95.7695 49.9869C95.791 57.8858 95.6765 59.267 94.7262 62.5492C90.0224 78.7954 77.7065 90.6561 61.1945 94.8416C49.5643 97.7899 39.286 96.4769 27.7848 90.5748C21.9713 87.5911 17.8589 84.3626 13.9769 79.7342C10.3683 75.4324 8.56026 72.4388 6.45868 67.2887C3.80928 60.7944 2.86086 55.3351 3.16937 48.3521C3.70925 36.1416 7.80162 26.5065 16.1579 17.7716C23.3194 10.286 32.4928 5.33307 42.5837 3.5035C46.454 2.80147 57.0105 3.31106 61.1379 4.39937ZM43.4438 5.71421C32.7541 7.19114 21.7367 13.3567 15.3394 21.441C8.80426 29.6995 3.71439 43.926 6.71951 45.5333C7.27716 45.8313 12.3479 46.0167 19.952 46.0167C29.9565 46.0167 32.4516 45.8897 33.1878 45.3436C33.9142 44.8046 33.9918 44.5015 33.5772 43.8256C33.1023 43.0512 32.0557 42.9704 21.0734 42.8559C7.30614 42.713 8.39619 43.2165 10.0761 37.775C11.1475 34.3059 13.5992 29.1479 14.9949 27.4258L15.8667 26.3505L24.9774 31.4997C32.7686 35.9029 34.1825 36.554 34.7397 35.9972C35.0982 35.639 35.2712 35.0322 35.1239 34.6492C34.9005 34.0672 29.8434 30.921 19.1597 24.7167L17.3125 23.6442L20.7752 20.3251C24.3585 16.8906 29.4881 13.1628 30.1056 13.544C30.2996 13.664 32.0959 16.6197 34.0979 20.1131C36.0995 23.6059 38.0945 26.905 38.5311 27.4435C39.3743 28.4842 40.6929 28.3454 41.1449 27.1684C41.2828 26.8087 39.5678 23.208 37.3335 19.1658C34.1648 13.4328 33.4117 11.7298 33.9095 11.4225C35.108 10.6826 41.7418 9.08797 44.8157 8.80118L47.8844 8.51486V15.7888C47.8844 21.7787 48.0138 23.1926 48.6187 23.797C49.5003 24.6779 49.8565 24.7087 50.5955 23.9703C50.9844 23.5816 51.1564 21.1472 51.1564 16.0298V8.64985H52.9625C56.6903 8.64985 66.1142 11.0974 66.1142 12.0656C66.1142 12.3314 64.4716 15.5071 62.464 19.1238C60.4564 22.74 58.6881 26.0329 58.5343 26.4416C58.0903 27.6201 58.8625 28.4323 60.1044 28.0923C60.9126 27.8709 62.3378 25.8615 65.4528 20.5526L69.6994 13.3146L72.4643 15.112C75.6166 17.1606 79.6982 20.7343 81.0449 22.6241L81.9578 23.9058L78.36 25.9231C64.351 33.7781 63.1348 34.7062 64.9152 36.1827C65.4575 36.6325 67.3487 35.7352 74.7799 31.5029C82.1177 27.3239 84.0622 26.3982 84.4128 26.9171C85.9623 29.2096 89.1483 36.2219 89.9439 39.0898C90.4632 40.9624 90.8881 42.5514 90.8881 42.621C90.8881 42.6901 85.4448 42.7471 78.7919 42.7471C69.1067 42.7471 66.59 42.8751 66.1633 43.3884C65.4453 44.253 65.9501 45.3964 67.1982 45.7308C67.7591 45.8808 73.7132 46.0069 80.4307 46.0102C94.4036 46.0176 94.0026 46.1316 93.5464 42.2842C92.8391 36.3167 89.4489 28.2833 85.2481 22.6213C77.2101 11.7863 63.4999 5.22985 49.3423 5.45031C46.8696 5.48861 44.215 5.60725 43.4438 5.71421ZM44.8461 27.5164C41.7975 28.9625 38.9059 32.0139 37.2741 35.5073C36.0635 38.0987 35.9663 38.7325 35.9845 43.9148C36.0079 50.6558 36.9292 53.5246 40.261 57.2272C42.8913 60.1507 45.3602 61.4599 48.8375 61.7748C54.0442 62.2465 58.8597 59.4926 61.2052 54.7012C64.6465 47.673 64.639 40.1809 61.1842 33.3633C58.1328 27.3426 50.7698 24.7073 44.8461 27.5164ZM55.597 31.4376C56.853 32.3152 57.9697 33.7342 58.9994 35.7604C63.1189 43.869 60.2676 55.1426 53.3557 58.0731L52.0492 58.6271L52.4208 56.876C53.1995 53.2056 52.7714 48.7725 51.1452 43.6813C49.4161 38.2673 49.037 33.3811 50.1435 30.7631C50.7235 29.3903 50.868 29.3179 52.2469 29.7103C53.0612 29.9419 54.5686 30.7192 55.597 31.4376ZM46.6134 34.0406C46.3689 38.137 46.462 38.7722 48.0886 44.1147C49.849 49.8954 50.2898 53.846 49.5437 57.159C49.2151 58.6187 49.0908 58.7055 47.7273 58.4332C45.4762 57.9834 42.8342 56.0025 41.3356 53.6409C37.707 47.9238 38.3749 37.3205 42.651 32.7622C43.6401 31.7075 46.3577 29.6799 46.7952 29.6706C46.8387 29.6696 46.7569 31.6361 46.6134 34.0406ZM6.06791 48.5142C5.29525 49.0789 5.23308 49.645 5.46539 54.0025C5.67901 58.0171 6.0193 59.6705 7.42253 63.517C10.5674 72.138 15.2623 78.893 21.5946 83.9086C23.5854 85.4854 25.3191 86.9199 25.4476 87.0964C26.1792 88.1011 35.0912 92.0461 38.9363 93.0672C42.6402 94.0508 44.5268 94.2676 49.5204 94.2844C58.7386 94.3148 64.0238 92.871 71.8019 88.1978C77.9126 84.5265 81.1987 81.901 84.1772 78.3091C89.354 72.067 92.0454 65.7347 93.702 55.9007C94.7304 49.7996 94.7336 49.652 93.8717 48.7982C93.0705 48.0042 92.5942 47.964 88.5509 48.3517C82.1831 48.9621 77.4027 50.5049 71.3607 53.8983C61.409 59.4874 54.2821 67.9552 50.7105 78.4324L49.9303 80.7212L48.6538 77.2232C46.2526 70.6443 41.359 63.6132 35.7928 58.7448C34.2508 57.3963 32.8863 56.2926 32.7611 56.2926C32.6358 56.2926 30.5707 55.1613 28.1723 53.7792C23.0352 50.8179 17.9383 49.1093 12.1258 48.4007C6.89059 47.7622 7.10234 47.7585 6.06791 48.5142ZM12.7639 52.8133C12.9116 53.5751 12.8331 53.6096 12.1796 53.0678C11.2863 52.327 11.1751 51.4611 12.009 51.7385C12.3306 51.845 12.6699 52.3289 12.7639 52.8133ZM88.0835 52.0318C88.0835 52.257 87.768 52.703 87.3823 53.023C86.7967 53.5088 86.6812 53.4415 86.6812 52.6129C86.6812 52.043 86.9794 51.6217 87.3823 51.6217C87.768 51.6217 88.0835 51.8062 88.0835 52.0318ZM19.5716 53.2813L21.2407 53.5942V57.6116V61.629L18.9036 59.3286C16.731 57.1903 16.5664 56.8676 16.5664 54.7423C16.5664 52.9525 16.7113 52.5115 17.2344 52.7119C17.6018 52.853 18.6535 53.1089 19.5716 53.2813ZM83.4092 54.8152C83.4092 56.8853 83.2353 57.2375 81.3333 59.019C80.1914 60.0886 79.1397 60.9634 78.9962 60.9634C78.8522 60.9634 78.7349 59.303 78.7349 57.273V53.583L80.4877 53.1178C83.3821 52.3494 83.4092 52.3653 83.4092 54.8152ZM10.502 56.2108C9.53906 56.5313 8.62009 55.8545 8.62009 54.8245V53.7941L9.81625 54.9175C10.4744 55.535 10.7829 56.117 10.502 56.2108ZM90.8881 55.1249C90.8881 55.9857 90.6394 56.2926 89.9425 56.2926C89.0413 56.2926 89.0328 56.2379 89.7625 55.1249C90.1837 54.4826 90.609 53.9572 90.7081 53.9572C90.8072 53.9572 90.8881 54.4826 90.8881 55.1249ZM72.7919 67.5895C71.3046 69.0678 69.9294 70.2837 69.7368 70.2911C69.5442 70.2991 69.3862 67.7035 69.3862 64.5236C69.3862 58.0927 69.2348 58.4328 73.0808 56.2295L75.2291 54.9988L75.3628 59.9503L75.4965 64.9019L72.7919 67.5895ZM27.4595 56.7494L29.6545 58.1404L29.6363 64.3395L29.6181 70.5387L27.0766 67.7362L24.5357 64.9337L24.524 60.146C24.5179 57.5131 24.682 55.3584 24.8886 55.3584C25.0957 55.3584 26.2526 55.9843 27.4595 56.7494ZM16.3327 61.6711L19.1373 64.2102L15.0912 64.2218L11.0451 64.233L10.3 62.048C9.8901 60.8462 9.55495 59.6902 9.55495 59.479C9.55495 59.2679 10.4492 59.1035 11.5415 59.1133C13.2799 59.1292 13.8787 59.4491 16.3327 61.6711ZM89.8121 60.3796C89.0539 64.1518 88.9464 64.233 84.7222 64.233H80.8701L83.4092 61.6641C85.7239 59.3221 86.1301 59.0951 88.0092 59.0951C90.0084 59.0951 90.0621 59.1334 89.8121 60.3796ZM37.2914 64.7805C38.7115 66.3732 40.1367 68.1682 40.4583 68.7694C41.0655 69.9025 40.8691 71.1254 39.1326 77.026L38.4609 79.3101L35.6937 76.5739L32.9265 73.8377V67.384C32.9265 59.8401 32.9013 59.8555 37.2914 64.7805ZM66.1142 67.8688V74.3071L63.555 76.8331C62.1471 78.2223 60.8981 79.2615 60.7794 79.1424C60.6602 79.0238 60.0137 76.8635 59.3425 74.3417L58.1216 69.7573L59.8941 67.5788C62.6608 64.1789 65.2588 61.4305 65.7061 61.4305C65.9305 61.4305 66.1142 64.3279 66.1142 67.8688ZM24.8049 70.1977L27.5759 73.1077H21.6853C16.1757 73.1077 15.7316 73.0395 14.8229 72.0567C14.0012 71.1674 12.3595 67.9043 12.3595 67.1589C12.3595 67.0328 14.5364 67.0103 17.1965 67.1084L22.0335 67.2873L24.8049 70.1977ZM87.1486 67.5493C87.1486 67.8319 86.4648 69.1921 85.6295 70.5719L84.1103 73.081L78.0337 73.0862L71.9571 73.0909L75.0608 70.0632L78.1651 67.0356H82.6566C85.6112 67.0356 87.1486 67.2112 87.1486 67.5493ZM57.1933 77.8224L58.1721 82.0706L55.0146 85.4668C52.2441 88.4477 51.8398 88.7331 51.7136 87.7989C51.4079 85.5401 55.0113 73.5748 55.9966 73.5748C56.1163 73.5748 56.6548 75.4861 57.1933 77.8224ZM45.2373 77.5693C46.4227 80.4124 48.177 87.9175 47.7544 88.3398C47.4945 88.5995 41.5385 81.9977 41.6423 81.5657C41.6797 81.4096 42.0728 79.6357 42.5154 77.6239C42.9586 75.6117 43.4868 74.1404 43.6896 74.3543C43.8925 74.5678 44.589 76.0148 45.2373 77.5693ZM33.8717 79.0009C36.7478 82.0393 36.8464 81.8875 30.9942 83.42L26.9584 84.477L24.6838 82.7964C23.433 81.8721 21.3656 80.0495 20.0899 78.7463L17.7701 76.3773H24.5796H31.3887L33.8717 79.0009ZM79.6501 78.5179C78.5039 79.695 76.5426 81.5217 75.2913 82.5774L73.0163 84.4966L69.77 83.661C67.9844 83.2014 65.772 82.618 64.8535 82.3644L63.1834 81.9034L65.9193 79.1405L68.6556 76.3773H75.195H81.7339L79.6501 78.5179ZM42.4939 87.5724L45.7262 90.827L43.8841 90.5435C41.3557 90.1544 35.0104 88.3113 32.4605 87.2263L30.3585 86.3313L34.0965 85.5284C36.1523 85.0865 38.0449 84.6503 38.302 84.5583C38.5591 84.4667 38.8802 84.3747 39.0158 84.3546C39.1513 84.3345 40.7163 85.7825 42.4939 87.5724ZM65.6468 85.5237L69.1525 86.3486L66.634 87.4542C63.964 88.6261 58.7054 90.1227 55.597 90.5949L53.7273 90.8789L57.233 87.6191C59.1612 85.8259 61.0542 84.4354 61.4399 84.5288C61.8255 84.6223 63.7186 85.0702 65.6468 85.5237Z" fill="#F4C329"/>
</svg>
